STARTFONT 2.1
FONT -FontForge-00 Starmap Truetype-Book-R-Normal--11-110-75-75-P-63-ISO10646-1
SIZE 11 75 75
FONTBOUNDINGBOX 8 10 -1 -2
COMMENT "Generated by fontforge, http://fontforge.sourceforge.net"
COMMENT "2001 Iconian Fonts"
STARTPROPERTIES 39
FOUNDRY "FontForge"
FAMILY_NAME "00 Starmap Truetype"
WEIGHT_NAME "Book"
SLANT "R"
SETWIDTH_NAME "Normal"
ADD_STYLE_NAME ""
PIXEL_SIZE 11
POINT_SIZE 110
RESOLUTION_X 75
RESOLUTION_Y 75
SPACING "P"
AVERAGE_WIDTH 63
CHARSET_REGISTRY "ISO10646"
CHARSET_ENCODING "1"
FONTNAME_REGISTRY ""
CHARSET_COLLECTIONS "ISO10646-1"
FONT_NAME "00StarmapTruetype"
FACE_NAME "00 Starmap Truetype"
COPYRIGHT "2001 Iconian Fonts"
FONT_VERSION "1.2"
FONT_ASCENT 9
FONT_DESCENT 2
UNDERLINE_POSITION -1
UNDERLINE_THICKNESS 1
X_HEIGHT 4
CAP_HEIGHT 6
RAW_ASCENT 800
RAW_DESCENT 200
NORM_SPACE 3
RELATIVE_WEIGHT 40
RELATIVE_SETWIDTH 50
SUPERSCRIPT_X 0
SUPERSCRIPT_Y 1
SUPERSCRIPT_SIZE 0
SUBSCRIPT_X 0
SUBSCRIPT_Y 1
SUBSCRIPT_SIZE 0
AVG_LOWERCASE_WIDTH 67
AVG_UPPERCASE_WIDTH 70
ENDPROPERTIES
CHARS 95
STARTCHAR space
ENCODING 32
SWIDTH 272 0
DWIDTH 3 0
BBX 1 1 0 0
BITMAP
00
ENDCHAR
STARTCHAR exclam
ENCODING 33
SWIDTH 267 0
DWIDTH 3 0
BBX 1 7 0 0
BITMAP
80
80
80
80
80
00
80
ENDCHAR
STARTCHAR quotedbl
ENCODING 34
SWIDTH 494 0
DWIDTH 5 0
BBX 4 2 0 5
BITMAP
90
90
ENDCHAR
STARTCHAR numbersign
ENCODING 35
SWIDTH 712 0
DWIDTH 8 0
BBX 6 7 0 0
BITMAP
48
48
B4
48
B4
48
48
ENDCHAR
STARTCHAR dollar
ENCODING 36
SWIDTH 617 0
DWIDTH 7 0
BBX 5 9 0 -1
BITMAP
20
70
A8
A0
50
28
A8
70
20
ENDCHAR
STARTCHAR percent
ENCODING 37
SWIDTH 800 0
DWIDTH 9 0
BBX 7 7 0 0
BITMAP
42
A4
48
10
24
4A
84
ENDCHAR
STARTCHAR ampersand
ENCODING 38
SWIDTH 800 0
DWIDTH 9 0
BBX 7 8 0 0
BITMAP
80
80
B0
20
30
04
0A
04
ENDCHAR
STARTCHAR quotesingle
ENCODING 39
SWIDTH 260 0
DWIDTH 3 0
BBX 1 2 0 5
BITMAP
80
80
ENDCHAR
STARTCHAR parenleft
ENCODING 40
SWIDTH 355 0
DWIDTH 4 0
BBX 2 7 0 0
BITMAP
40
80
80
80
80
80
40
ENDCHAR
STARTCHAR parenright
ENCODING 41
SWIDTH 355 0
DWIDTH 4 0
BBX 2 7 0 0
BITMAP
80
40
40
40
40
40
80
ENDCHAR
STARTCHAR asterisk
ENCODING 42
SWIDTH 611 0
DWIDTH 7 0
BBX 5 5 0 2
BITMAP
D8
20
F8
20
D8
ENDCHAR
STARTCHAR plus
ENCODING 43
SWIDTH 440 0
DWIDTH 5 0
BBX 3 5 0 0
BITMAP
40
40
E0
40
40
ENDCHAR
STARTCHAR comma
ENCODING 44
SWIDTH 268 0
DWIDTH 3 0
BBX 2 3 -1 -1
BITMAP
40
40
80
ENDCHAR
STARTCHAR minus
ENCODING 45
SWIDTH 499 0
DWIDTH 5 0
BBX 4 1 0 3
BITMAP
F0
ENDCHAR
STARTCHAR period
ENCODING 46
SWIDTH 259 0
DWIDTH 3 0
BBX 1 2 0 0
BITMAP
80
80
ENDCHAR
STARTCHAR slash
ENCODING 47
SWIDTH 790 0
DWIDTH 9 0
BBX 7 7 0 0
BITMAP
02
04
08
10
20
40
80
ENDCHAR
STARTCHAR zero
ENCODING 48
SWIDTH 612 0
DWIDTH 7 0
BBX 5 7 0 0
BITMAP
70
88
98
A8
C8
88
70
ENDCHAR
STARTCHAR one
ENCODING 49
SWIDTH 432 0
DWIDTH 5 0
BBX 3 7 0 0
BITMAP
C0
40
40
40
40
40
E0
ENDCHAR
STARTCHAR two
ENCODING 50
SWIDTH 616 0
DWIDTH 7 0
BBX 5 7 0 0
BITMAP
70
88
08
70
80
80
F8
ENDCHAR
STARTCHAR three
ENCODING 51
SWIDTH 619 0
DWIDTH 7 0
BBX 5 7 0 0
BITMAP
70
88
08
70
08
88
70
ENDCHAR
STARTCHAR four
ENCODING 52
SWIDTH 609 0
DWIDTH 7 0
BBX 5 7 0 0
BITMAP
18
28
48
88
F0
08
08
ENDCHAR
STARTCHAR five
ENCODING 53
SWIDTH 612 0
DWIDTH 7 0
BBX 5 7 0 0
BITMAP
F8
80
80
70
08
88
70
ENDCHAR
STARTCHAR six
ENCODING 54
SWIDTH 612 0
DWIDTH 7 0
BBX 5 7 0 0
BITMAP
70
80
80
70
88
88
70
ENDCHAR
STARTCHAR seven
ENCODING 55
SWIDTH 620 0
DWIDTH 7 0
BBX 5 7 0 0
BITMAP
F8
08
10
20
40
80
80
ENDCHAR
STARTCHAR eight
ENCODING 56
SWIDTH 620 0
DWIDTH 7 0
BBX 5 7 0 0
BITMAP
70
88
88
70
88
88
70
ENDCHAR
STARTCHAR nine
ENCODING 57
SWIDTH 624 0
DWIDTH 7 0
BBX 5 7 0 0
BITMAP
70
88
88
70
08
08
70
ENDCHAR
STARTCHAR colon
ENCODING 58
SWIDTH 259 0
DWIDTH 3 0
BBX 1 6 0 0
BITMAP
80
80
00
00
80
80
ENDCHAR
STARTCHAR semicolon
ENCODING 59
SWIDTH 256 0
DWIDTH 3 0
BBX 2 7 -1 -1
BITMAP
40
40
00
00
40
40
80
ENDCHAR
STARTCHAR less
ENCODING 60
SWIDTH 624 0
DWIDTH 7 0
BBX 5 7 0 0
BITMAP
08
10
20
C0
20
10
08
ENDCHAR
STARTCHAR equal
ENCODING 61
SWIDTH 528 0
DWIDTH 6 0
BBX 4 3 0 1
BITMAP
F0
00
F0
ENDCHAR
STARTCHAR greater
ENCODING 62
SWIDTH 624 0
DWIDTH 7 0
BBX 5 7 0 0
BITMAP
80
40
20
18
20
40
80
ENDCHAR
STARTCHAR question
ENCODING 63
SWIDTH 624 0
DWIDTH 7 0
BBX 5 7 0 0
BITMAP
70
88
08
70
80
00
80
ENDCHAR
STARTCHAR at
ENCODING 64
SWIDTH 712 0
DWIDTH 8 0
BBX 6 7 0 0
BITMAP
78
84
B4
AC
BC
80
78
ENDCHAR
STARTCHAR A
ENCODING 65
SWIDTH 616 0
DWIDTH 7 0
BBX 5 7 0 0
BITMAP
20
50
88
88
70
88
88
ENDCHAR
STARTCHAR B
ENCODING 66
SWIDTH 624 0
DWIDTH 7 0
BBX 5 7 0 0
BITMAP
F0
88
88
F0
88
88
F0
ENDCHAR
STARTCHAR C
ENCODING 67
SWIDTH 620 0
DWIDTH 7 0
BBX 5 7 0 0
BITMAP
70
88
80
80
80
88
70
ENDCHAR
STARTCHAR D
ENCODING 68
SWIDTH 616 0
DWIDTH 7 0
BBX 5 7 0 0
BITMAP
F0
88
88
88
88
88
F0
ENDCHAR
STARTCHAR E
ENCODING 69
SWIDTH 612 0
DWIDTH 7 0
BBX 5 7 0 0
BITMAP
78
80
80
70
80
80
78
ENDCHAR
STARTCHAR F
ENCODING 70
SWIDTH 616 0
DWIDTH 7 0
BBX 5 7 0 0
BITMAP
78
80
80
70
80
80
80
ENDCHAR
STARTCHAR G
ENCODING 71
SWIDTH 620 0
DWIDTH 7 0
BBX 5 7 0 0
BITMAP
70
88
80
80
B8
88
70
ENDCHAR
STARTCHAR H
ENCODING 72
SWIDTH 620 0
DWIDTH 7 0
BBX 5 7 0 0
BITMAP
88
88
88
70
88
88
88
ENDCHAR
STARTCHAR I
ENCODING 73
SWIDTH 620 0
DWIDTH 7 0
BBX 5 7 0 0
BITMAP
D8
20
20
20
20
20
D8
ENDCHAR
STARTCHAR J
ENCODING 74
SWIDTH 612 0
DWIDTH 7 0
BBX 5 7 0 0
BITMAP
30
08
08
08
08
88
70
ENDCHAR
STARTCHAR K
ENCODING 75
SWIDTH 620 0
DWIDTH 7 0
BBX 5 7 0 0
BITMAP
88
90
A0
C0
A0
90
88
ENDCHAR
STARTCHAR L
ENCODING 76
SWIDTH 528 0
DWIDTH 6 0
BBX 4 7 0 0
BITMAP
80
80
80
80
80
80
F0
ENDCHAR
STARTCHAR M
ENCODING 77
SWIDTH 700 0
DWIDTH 8 0
BBX 6 7 0 0
BITMAP
68
94
94
94
94
94
94
ENDCHAR
STARTCHAR N
ENCODING 78
SWIDTH 616 0
DWIDTH 7 0
BBX 5 7 0 0
BITMAP
88
88
C8
A8
98
88
88
ENDCHAR
STARTCHAR O
ENCODING 79
SWIDTH 612 0
DWIDTH 7 0
BBX 5 7 0 0
BITMAP
70
88
88
88
88
88
70
ENDCHAR
STARTCHAR P
ENCODING 80
SWIDTH 616 0
DWIDTH 7 0
BBX 5 7 0 0
BITMAP
F0
88
88
F0
80
80
80
ENDCHAR
STARTCHAR Q
ENCODING 81
SWIDTH 627 0
DWIDTH 7 0
BBX 5 7 0 0
BITMAP
70
88
88
88
A8
90
68
ENDCHAR
STARTCHAR R
ENCODING 82
SWIDTH 624 0
DWIDTH 7 0
BBX 5 7 0 0
BITMAP
F0
88
88
F0
A0
90
88
ENDCHAR
STARTCHAR S
ENCODING 83
SWIDTH 616 0
DWIDTH 7 0
BBX 5 7 0 0
BITMAP
70
88
80
70
08
88
70
ENDCHAR
STARTCHAR T
ENCODING 84
SWIDTH 620 0
DWIDTH 7 0
BBX 5 7 0 0
BITMAP
D8
20
20
20
20
20
20
ENDCHAR
STARTCHAR U
ENCODING 85
SWIDTH 627 0
DWIDTH 7 0
BBX 5 7 0 0
BITMAP
88
88
88
88
88
88
70
ENDCHAR
STARTCHAR V
ENCODING 86
SWIDTH 619 0
DWIDTH 7 0
BBX 5 7 0 0
BITMAP
88
88
88
88
88
50
20
ENDCHAR
STARTCHAR W
ENCODING 87
SWIDTH 704 0
DWIDTH 8 0
BBX 6 7 0 0
BITMAP
94
94
94
94
94
94
68
ENDCHAR
STARTCHAR X
ENCODING 88
SWIDTH 616 0
DWIDTH 7 0
BBX 5 7 0 0
BITMAP
88
88
50
20
50
88
88
ENDCHAR
STARTCHAR Y
ENCODING 89
SWIDTH 619 0
DWIDTH 7 0
BBX 5 7 0 0
BITMAP
88
88
88
50
20
20
20
ENDCHAR
STARTCHAR Z
ENCODING 90
SWIDTH 616 0
DWIDTH 7 0
BBX 5 7 0 0
BITMAP
F8
08
10
20
40
80
F8
ENDCHAR
STARTCHAR bracketleft
ENCODING 91
SWIDTH 355 0
DWIDTH 4 0
BBX 2 7 0 0
BITMAP
C0
80
80
80
80
80
C0
ENDCHAR
STARTCHAR backslash
ENCODING 92
SWIDTH 796 0
DWIDTH 9 0
BBX 7 7 0 0
BITMAP
80
40
20
10
08
04
02
ENDCHAR
STARTCHAR bracketright
ENCODING 93
SWIDTH 347 0
DWIDTH 4 0
BBX 2 7 0 0
BITMAP
C0
40
40
40
40
40
C0
ENDCHAR
STARTCHAR asciicircum
ENCODING 94
SWIDTH 612 0
DWIDTH 7 0
BBX 5 3 0 4
BITMAP
20
50
88
ENDCHAR
STARTCHAR underscore
ENCODING 95
SWIDTH 438 0
DWIDTH 5 0
BBX 5 1 0 -2
BITMAP
F8
ENDCHAR
STARTCHAR grave
ENCODING 96
SWIDTH 260 0
DWIDTH 3 0
BBX 1 2 0 5
BITMAP
80
80
ENDCHAR
STARTCHAR a
ENCODING 97
SWIDTH 620 0
DWIDTH 7 0
BBX 5 5 0 0
BITMAP
70
08
78
88
F8
ENDCHAR
STARTCHAR b
ENCODING 98
SWIDTH 624 0
DWIDTH 7 0
BBX 5 7 0 0
BITMAP
80
80
70
88
88
88
70
ENDCHAR
STARTCHAR c
ENCODING 99
SWIDTH 616 0
DWIDTH 7 0
BBX 5 5 0 0
BITMAP
70
88
80
80
70
ENDCHAR
STARTCHAR d
ENCODING 100
SWIDTH 616 0
DWIDTH 7 0
BBX 5 7 0 0
BITMAP
08
08
70
88
88
88
70
ENDCHAR
STARTCHAR e
ENCODING 101
SWIDTH 616 0
DWIDTH 7 0
BBX 5 5 0 0
BITMAP
70
88
E0
80
78
ENDCHAR
STARTCHAR f
ENCODING 102
SWIDTH 624 0
DWIDTH 7 0
BBX 5 6 0 -1
BITMAP
70
88
E0
80
80
80
ENDCHAR
STARTCHAR g
ENCODING 103
SWIDTH 624 0
DWIDTH 7 0
BBX 5 6 0 -1
BITMAP
70
88
98
E8
08
70
ENDCHAR
STARTCHAR h
ENCODING 104
SWIDTH 616 0
DWIDTH 7 0
BBX 5 7 0 0
BITMAP
80
80
70
88
88
88
88
ENDCHAR
STARTCHAR i
ENCODING 105
SWIDTH 267 0
DWIDTH 3 0
BBX 1 5 0 0
BITMAP
80
80
80
80
80
ENDCHAR
STARTCHAR j
ENCODING 106
SWIDTH 624 0
DWIDTH 7 0
BBX 5 6 0 -1
BITMAP
08
08
08
08
88
70
ENDCHAR
STARTCHAR k
ENCODING 107
SWIDTH 624 0
DWIDTH 7 0
BBX 5 7 0 0
BITMAP
80
80
90
A0
C0
A0
98
ENDCHAR
STARTCHAR l
ENCODING 108
SWIDTH 259 0
DWIDTH 3 0
BBX 1 7 0 0
BITMAP
80
80
80
80
80
80
80
ENDCHAR
STARTCHAR m
ENCODING 109
SWIDTH 704 0
DWIDTH 8 0
BBX 6 5 0 0
BITMAP
68
94
94
94
94
ENDCHAR
STARTCHAR n
ENCODING 110
SWIDTH 616 0
DWIDTH 7 0
BBX 5 5 0 0
BITMAP
F0
88
88
88
88
ENDCHAR
STARTCHAR o
ENCODING 111
SWIDTH 612 0
DWIDTH 7 0
BBX 5 5 0 0
BITMAP
70
88
88
88
70
ENDCHAR
STARTCHAR p
ENCODING 112
SWIDTH 624 0
DWIDTH 7 0
BBX 5 6 0 -1
BITMAP
70
88
88
C8
B0
80
ENDCHAR
STARTCHAR q
ENCODING 113
SWIDTH 624 0
DWIDTH 7 0
BBX 5 6 0 -1
BITMAP
70
88
88
98
68
08
ENDCHAR
STARTCHAR r
ENCODING 114
SWIDTH 528 0
DWIDTH 6 0
BBX 4 5 0 0
BITMAP
60
90
80
80
80
ENDCHAR
STARTCHAR s
ENCODING 115
SWIDTH 620 0
DWIDTH 7 0
BBX 5 5 0 0
BITMAP
70
80
F8
08
70
ENDCHAR
STARTCHAR t
ENCODING 116
SWIDTH 620 0
DWIDTH 7 0
BBX 5 7 0 0
BITMAP
20
20
D8
20
20
20
10
ENDCHAR
STARTCHAR u
ENCODING 117
SWIDTH 616 0
DWIDTH 7 0
BBX 5 5 0 0
BITMAP
88
88
88
88
70
ENDCHAR
STARTCHAR v
ENCODING 118
SWIDTH 612 0
DWIDTH 7 0
BBX 5 5 0 0
BITMAP
88
88
88
50
20
ENDCHAR
STARTCHAR w
ENCODING 119
SWIDTH 708 0
DWIDTH 8 0
BBX 6 5 0 0
BITMAP
94
94
94
94
68
ENDCHAR
STARTCHAR x
ENCODING 120
SWIDTH 616 0
DWIDTH 7 0
BBX 5 5 0 0
BITMAP
88
50
20
50
88
ENDCHAR
STARTCHAR y
ENCODING 121
SWIDTH 616 0
DWIDTH 7 0
BBX 5 7 0 -2
BITMAP
88
88
50
20
20
40
80
ENDCHAR
STARTCHAR z
ENCODING 122
SWIDTH 619 0
DWIDTH 7 0
BBX 5 5 0 0
BITMAP
F8
10
20
40
F8
ENDCHAR
STARTCHAR FL007Bh
ENCODING 123
SWIDTH 355 0
DWIDTH 4 0
BBX 2 7 0 0
BITMAP
40
80
80
80
80
80
40
ENDCHAR
STARTCHAR bar
ENCODING 124
SWIDTH 256 0
DWIDTH 3 0
BBX 1 8 0 -1
BITMAP
80
80
80
80
80
80
80
80
ENDCHAR
STARTCHAR FL007Dh
ENCODING 125
SWIDTH 355 0
DWIDTH 4 0
BBX 2 7 0 0
BITMAP
80
40
40
40
40
40
80
ENDCHAR
STARTCHAR asciitilde
ENCODING 126
SWIDTH 617 0
DWIDTH 7 0
BBX 5 2 0 5
BITMAP
30
C8
ENDCHAR
ENDFONT
